<?xml version="1.0" encoding="UTF-8" standalone="no"?><!DOCTYPE svg PUBLIC "-//W3C//DTD SVG 1.1//EN" "http://www.w3.org/Graphics/SVG/1.1/DTD/svg11.dtd"><svg width="100%" height="100%" viewBox="0 0 226 150" version="1.1" xmlns="http://www.w3.org/2000/svg" xmlns:xlink="http://www.w3.org/1999/xlink" xml:space="preserve" xmlns:serif="http://www.serif.com/" style="fill-rule:evenodd;clip-rule:evenodd;stroke-linejoin:round;stroke-miterlimit:1.41421;"><g id="Layer-1" serif:id="Layer 1"><g><g id="Layer-11" serif:id="Layer 1"><path d="M111.328,137.526c-0.673,0 -1.342,-0.177 -1.933,-0.517l-6.156,-3.645c-0.92,-0.514 -0.471,-0.696 -0.168,-0.801c1.226,-0.428 1.475,-0.525 2.783,-1.268c0.138,-0.079 0.318,-0.051 0.458,0.032l4.73,2.806c0.171,0.092 0.413,0.092 0.571,0l18.44,-10.644c0.171,-0.097 0.281,-0.296 0.281,-0.498l0,-21.278c0,-0.213 -0.11,-0.402 -0.285,-0.508l-18.432,-10.634c-0.171,-0.102 -0.397,-0.102 -0.568,0l-18.428,10.634c-0.179,0.101 -0.292,0.3 -0.292,0.503l0,21.279c0,0.202 0.111,0.396 0.285,0.493l5.051,2.917c2.741,1.371 4.417,-0.244 4.417,-1.87l0,-21c0,-0.301 0.235,-0.531 0.535,-0.531l2.335,0c0.291,0 0.531,0.23 0.531,0.531l0,21.01c0,3.655 -1.994,5.756 -5.46,5.756c-1.066,0 -1.907,0 -4.251,-1.154l-4.837,-2.788c-1.195,-0.692 -1.935,-1.985 -1.935,-3.364l0,-21.279c0,-1.385 0.74,-2.677 1.935,-3.36l18.458,-10.648c1.168,-0.66 2.718,-0.66 3.877,0l18.434,10.653c1.191,0.687 1.935,1.975 1.935,3.36l0,21.278c0,1.38 -0.744,2.668 -1.935,3.36l-18.434,10.649c-0.591,0.341 -1.26,0.516 -1.943,0.516" style="fill:#689f63;fill-rule:nonzero;"/><path d="M143.588,100.569c0,1.957 -1.602,3.554 -3.553,3.554c-1.939,0 -3.555,-1.578 -3.555,-3.554c0,-2.013 1.652,-3.554 3.555,-3.554c1.915,0 3.549,1.546 3.549,3.554m-6.527,-0.01c0,1.654 1.334,2.992 2.972,2.992c1.653,0 2.987,-1.366 2.987,-2.992c0,-1.656 -1.353,-2.972 -2.991,-2.972c-1.615,0 -2.973,1.297 -2.973,2.968m1.653,-1.98l1.37,0c0.471,0 1.395,0 1.395,1.053c0,0.733 -0.471,0.885 -0.753,0.978c0.549,0.037 0.586,0.397 0.66,0.905c0.037,0.318 0.097,0.867 0.208,1.052l-0.845,0c-0.023,-0.185 -0.152,-1.2 -0.152,-1.256c-0.055,-0.226 -0.133,-0.337 -0.415,-0.337l-0.697,0l0,1.598l-0.771,0l0,-3.993Zm0.752,1.745l0.618,0c0.508,0 0.605,-0.356 0.605,-0.563c0,-0.545 -0.374,-0.545 -0.581,-0.545l-0.637,0l-0.005,1.108Zm-22.433,22.543c-8.068,0 -9.76,-3.703 -9.76,-6.809c0,-0.295 0.238,-0.531 0.534,-0.531l2.382,0c0.263,0 0.484,0.191 0.527,0.451c0.359,2.427 1.43,3.652 6.309,3.652c3.886,0 5.539,-0.879 5.539,-2.939c0,-1.186 -0.471,-2.068 -6.508,-2.658c-5.05,-0.499 -8.17,-1.612 -8.17,-5.65c0,-3.72 3.139,-5.936 8.396,-5.936c5.903,0 8.83,2.05 9.199,6.452c0.013,0.153 -0.042,0.301 -0.143,0.411c-0.102,0.107 -0.245,0.171 -0.392,0.171l-2.396,0c-0.25,0 -0.466,-0.175 -0.517,-0.416c-0.577,-2.552 -1.971,-3.369 -5.76,-3.369c-4.242,0 -4.736,1.477 -4.736,2.585c0,1.343 0.582,1.735 6.305,2.492c5.668,0.753 8.359,1.815 8.359,5.797c0,4.016 -3.351,6.32 -9.195,6.32" style="fill:#689f63;fill-rule:nonzero;"/><path d="M213.417,62.087c0.727,-0.422 1.174,-1.201 1.174,-2.041l0,-5.472c0,-0.842 -0.448,-1.619 -1.175,-2.043l-19.433,-11.281c-0.733,-0.424 -1.634,-0.424 -2.367,0l-19.552,11.286c-0.734,0.424 -1.182,1.2 -1.182,2.045l0,22.57c0,0.849 0.457,1.634 1.191,2.054l19.428,11.073c0.715,0.411 1.592,0.416 2.317,0.013l11.751,-6.531c0.369,-0.207 0.604,-0.599 0.604,-1.024c0,-0.425 -0.226,-0.822 -0.595,-1.029l-19.672,-11.29c-0.369,-0.208 -0.595,-0.6 -0.595,-1.02l0,-7.081c0,-0.422 0.222,-0.812 0.59,-1.023l6.12,-3.531c0.365,-0.212 0.814,-0.212 1.178,0l6.125,3.531c0.364,0.208 0.591,0.601 0.591,1.021l0,5.566c0,0.42 0.226,0.812 0.59,1.025c0.365,0.207 0.818,0.207 1.182,-0.005l11.73,-6.813Zm-65.123,-49.463c-0.367,-0.204 -0.812,-0.199 -1.175,0.012c-0.359,0.213 -0.582,0.601 -0.582,1.02l0,30.002c0,0.296 -0.157,0.568 -0.413,0.716c-0.254,0.147 -0.57,0.147 -0.825,0l-4.898,-2.821c-0.729,-0.422 -1.627,-0.422 -2.359,0l-19.557,11.287c-0.731,0.42 -1.181,1.2 -1.181,2.039l0,22.58c0,0.846 0.45,1.621 1.181,2.045l19.557,11.294c0.73,0.421 1.629,0.421 2.362,0l19.555,-11.298c0.73,-0.425 1.183,-1.201 1.183,-2.045l0,-56.274c0,-0.857 -0.467,-1.645 -1.214,-2.063l-11.634,-6.494Zm-1.815,57.419c0,0.211 -0.111,0.407 -0.295,0.511l-6.714,3.87c-0.183,0.105 -0.408,0.105 -0.59,0l-6.716,-3.87c-0.184,-0.105 -0.295,-0.3 -0.295,-0.511l0,-7.752c0,-0.211 0.111,-0.406 0.291,-0.512l6.711,-3.877c0.185,-0.107 0.411,-0.107 0.595,0l6.716,3.877c0.185,0.106 0.295,0.301 0.295,0.512l0.002,7.752Zm-92.251,-15.774c0,-0.849 -0.448,-1.629 -1.18,-2.051l-19.551,-11.249c-0.33,-0.194 -0.699,-0.295 -1.074,-0.309l-0.202,0c-0.375,0.014 -0.745,0.115 -1.081,0.309l-19.549,11.249c-0.728,0.424 -1.182,1.204 -1.182,2.054l0.043,30.296c0,0.42 0.217,0.813 0.586,1.02c0.36,0.222 0.813,0.222 1.173,0l11.622,-6.655c0.734,-0.437 1.181,-1.208 1.181,-2.05l0,-14.153c0,-0.845 0.448,-1.625 1.18,-2.045l4.948,-2.85c0.367,-0.213 0.77,-0.318 1.181,-0.318c0.405,0 0.817,0.105 1.174,0.318l4.946,2.848c0.732,0.421 1.181,1.201 1.181,2.045l0,14.153c0,0.84 0.454,1.615 1.184,2.05l11.616,6.651c0.364,0.216 0.818,0.216 1.181,0c0.358,-0.209 0.586,-0.601 0.586,-1.021l0.037,-30.292Z" style="fill:#333;fill-rule:nonzero;"/><path d="M192.513,61.031c0.139,-0.082 0.313,-0.082 0.453,0l3.752,2.165c0.141,0.081 0.227,0.231 0.227,0.392l0,4.334c0,0.161 -0.086,0.311 -0.227,0.393l-3.752,2.164c-0.14,0.082 -0.314,0.082 -0.453,0l-3.75,-2.164c-0.143,-0.082 -0.231,-0.232 -0.231,-0.393l0,-4.334c0,-0.161 0.083,-0.311 0.227,-0.392l3.754,-2.165Z" style="fill:#689f63;fill-rule:nonzero;"/><path d="M84.588,41.363l0.005,0l-19.445,11.224c-0.728,0.42 -1.175,1.196 -1.175,2.033l0,22.464c0,0.838 0.447,1.614 1.175,2.033l19.447,11.233c0.727,0.419 1.623,0.419 2.349,0l19.444,-11.233c0.725,-0.419 1.172,-1.195 1.172,-2.033l0,-22.464c0,-0.837 -0.447,-1.613 -1.177,-2.033l-19.441,-11.224c-0.364,-0.209 -0.771,-0.314 -1.176,-0.314c-0.407,0 -0.814,0.105 -1.178,0.314Z" style="fill:url(#_Linear1);fill-rule:nonzero;"/></g></g></g><defs><linearGradient id="_Linear1" x1="0" y1="0" x2="1" y2="0" gradientUnits="userSpaceOnUse" gradientTransform="matrix(43.5877,-7.93559e-32,7.93559e-32,43.5877,63.9724,65.8569)"><stop offset="0" style="stop-color:#3e863d;stop-opacity:1"/><stop offset="0.3" style="stop-color:#3e863d;stop-opacity:1"/><stop offset="0.5" style="stop-color:#55934f;stop-opacity:1"/><stop offset="0.8" style="stop-color:#5aad45;stop-opacity:1"/><stop offset="1" style="stop-color:#5aad45;stop-opacity:1"/></linearGradient></defs></svg>