<?xml version="1.0" encoding="UTF-8" standalone="no"?><!DOCTYPE svg PUBLIC "-//W3C//DTD SVG 1.1//EN" "http://www.w3.org/Graphics/SVG/1.1/DTD/svg11.dtd"><svg width="100%" height="100%" viewBox="0 0 226 150" version="1.1" xmlns="http://www.w3.org/2000/svg" xmlns:xlink="http://www.w3.org/1999/xlink" xml:space="preserve" xmlns:serif="http://www.serif.com/" style="fill-rule:evenodd;clip-rule:evenodd;stroke-linejoin:round;stroke-miterlimit:1.41421;"><g id="Layer-1" serif:id="Layer 1"><g><g><path d="M102.559,135.237l-0.409,0c-2.105,0 -2.399,-0.525 -2.399,-3.216l0,-12.69l2.808,0c6.082,0 7.193,4.444 7.193,7.895c0,3.567 -1.111,8.011 -7.193,8.011m-24.679,-8.129l0,-7.777l2.397,0c2.631,0 3.802,1.812 3.802,3.917c0,2.048 -1.171,3.86 -3.802,3.86l-2.397,0Zm24.504,-9.533l-10.469,0l0,1.112c3.275,0 3.801,0.701 3.801,4.854l0,7.486c0,4.152 -0.526,4.912 -3.801,4.912c-2.514,-0.35 -4.21,-1.696 -6.55,-4.269l-2.69,-2.924c3.626,-0.644 5.556,-2.924 5.556,-5.498c0,-3.216 -2.749,-5.673 -7.895,-5.673l-10.293,0l0,1.112c3.275,0 3.801,0.701 3.801,4.854l0,7.486c0,4.152 -0.526,4.912 -3.801,4.912l0,1.111l11.638,0l0,-1.111c-3.275,0 -3.801,-0.76 -3.801,-4.912l0,-2.105l0.993,0l6.492,8.128l17.019,0c8.363,0 11.988,-4.445 11.988,-9.767c0,-5.321 -3.625,-9.708 -11.988,-9.708" style="fill:#00759b;fill-rule:nonzero;"/><path d="M37.469,129.273l4.035,-11.932c1.171,-3.45 0.644,-4.444 -3.099,-4.444l0,-1.17l10.996,0l0,1.17c-3.685,0 -4.562,0.877 -6.024,5.147l-6.668,20l-0.76,0l-5.965,-18.305l-6.083,18.305l-0.76,0l-6.491,-20c-1.403,-4.27 -2.34,-5.147 -5.732,-5.147l0,-1.17l12.983,0l0,1.17c-3.45,0 -4.386,0.819 -3.157,4.444l3.917,11.932l5.908,-17.546l1.111,0l5.789,17.546Z" style="fill:#00759b;fill-rule:nonzero;"/><path d="M57.352,118.628c-5.379,0 -7.251,4.854 -7.251,8.655c0,3.861 1.872,8.657 7.251,8.657c5.44,0 7.311,-4.796 7.311,-8.657c0,-3.801 -1.871,-8.655 -7.311,-8.655m0,19.182c-6.432,0 -11.696,-4.736 -11.696,-10.527c0,-5.731 5.264,-10.468 11.696,-10.468c6.434,0 11.697,4.737 11.697,10.468c0,5.791 -5.263,10.527 -11.697,10.527" style="fill:#00759b;fill-rule:nonzero;"/><path d="M127.531,113.832l-3.334,0l0,10.176l3.334,0c3.275,0 4.795,-2.28 4.795,-5.028c0,-2.807 -1.52,-5.148 -4.795,-5.148m1.286,22.049l0,1.169l-13.392,0l0,-1.169c3.918,0 4.62,-0.994 4.62,-6.843l0,-9.356c0,-5.85 -0.702,-6.785 -4.62,-6.785l0,-1.17l12.106,0c6.023,0 9.357,3.1 9.357,7.253c0,4.035 -3.334,7.194 -9.357,7.194l-3.334,0l0,2.864c0,5.849 0.701,6.843 4.62,6.843" style="fill:#454342;fill-rule:nonzero;"/><path d="M146.07,127.108l0,-7.777l2.397,0c2.632,0 3.802,1.812 3.802,3.917c0,2.048 -1.17,3.86 -3.802,3.86l-2.397,0Zm30.994,4.444l-0.292,1.054c-0.525,1.93 -1.171,2.631 -5.322,2.631l-0.819,0c-3.041,0 -3.567,-0.701 -3.567,-4.853l0,-2.691c4.561,0 4.913,0.409 4.913,3.451l1.111,0l0,-8.714l-1.111,0c0,3.041 -0.352,3.45 -4.913,3.45l0,-6.549l3.216,0c4.152,0 4.796,0.701 5.321,2.631l0.294,1.11l0.935,0l-0.409,-5.497l-17.194,0l0,1.111c3.276,0 3.801,0.702 3.801,4.855l0,7.486c0,3.798 -0.447,4.755 -3.029,4.892c-2.454,-0.376 -4.139,-1.715 -6.444,-4.249l-2.691,-2.924c3.627,-0.644 5.557,-2.924 5.557,-5.498c0,-3.216 -2.748,-5.673 -7.895,-5.673l-10.293,0l0,1.111c3.275,0 3.801,0.702 3.801,4.855l0,7.486c0,4.152 -0.526,4.912 -3.801,4.912l0,1.111l11.637,0l0,-1.111c-3.274,0 -3.8,-0.76 -3.8,-4.912l0,-2.105l0.994,0l6.491,8.128l24.036,0l0.351,-5.498l-0.878,0Z" style="fill:#454342;fill-rule:nonzero;"/><path d="M188.936,137.81c-2.34,0 -4.387,-1.227 -5.263,-1.988c-0.293,0.293 -0.819,1.17 -0.936,1.988l-1.111,0l0,-8.07l1.169,0c0.468,3.859 3.158,6.14 6.609,6.14c1.871,0 3.392,-1.051 3.392,-2.806c0,-1.521 -1.346,-2.691 -3.743,-3.801l-3.333,-1.579c-2.34,-1.113 -4.094,-3.042 -4.094,-5.615c0,-2.807 2.631,-5.205 6.258,-5.205c1.93,0 3.566,0.701 4.561,1.521c0.292,-0.235 0.584,-0.879 0.76,-1.58l1.112,0l0,6.901l-1.229,0c-0.41,-2.749 -1.93,-5.029 -5.029,-5.029c-1.638,0 -3.159,0.935 -3.159,2.398c0,1.521 1.229,2.338 4.036,3.625l3.216,1.58c2.808,1.345 3.919,3.508 3.919,5.263c0,3.684 -3.217,6.257 -7.135,6.257" style="fill:#454342;fill-rule:nonzero;"/><path d="M206.949,137.81c-2.34,0 -4.388,-1.227 -5.264,-1.988c-0.294,0.293 -0.819,1.17 -0.936,1.988l-1.112,0l0,-8.07l1.171,0c0.468,3.859 3.157,6.14 6.607,6.14c1.872,0 3.393,-1.051 3.393,-2.806c0,-1.521 -1.346,-2.691 -3.743,-3.801l-3.334,-1.579c-2.34,-1.113 -4.094,-3.042 -4.094,-5.615c0,-2.807 2.633,-5.205 6.258,-5.205c1.931,0 3.567,0.701 4.563,1.521c0.29,-0.235 0.584,-0.879 0.759,-1.58l1.111,0l0,6.901l-1.228,0c-0.409,-2.749 -1.93,-5.029 -5.029,-5.029c-1.638,0 -3.159,0.935 -3.159,2.398c0,1.521 1.228,2.338 4.037,3.625l3.215,1.58c2.808,1.345 3.918,3.508 3.918,5.263c0,3.684 -3.216,6.257 -7.133,6.257" style="fill:#454342;fill-rule:nonzero;"/><path d="M74.516,55.999c0,14.956 8.691,27.88 21.295,34.006l-18.024,-49.383c-2.096,4.699 -3.271,9.899 -3.271,15.377" style="fill:#454342;fill-rule:nonzero;"/><path d="M137.807,54.093c0,-4.67 -1.678,-7.904 -3.116,-10.42c-1.915,-3.113 -3.711,-5.749 -3.711,-8.862c0,-3.473 2.635,-6.706 6.345,-6.706c0.167,0 0.327,0.021 0.49,0.03c-6.722,-6.158 -15.678,-9.919 -25.515,-9.919c-13.2,0 -24.813,6.773 -31.57,17.031c0.887,0.027 1.723,0.045 2.433,0.045c3.951,0 10.069,-0.481 10.069,-0.481c2.037,-0.119 2.277,2.873 0.241,3.113c0,0 -2.047,0.241 -4.324,0.361l13.76,40.927l8.27,-24.799l-5.888,-16.128c-2.034,-0.12 -3.963,-0.361 -3.963,-0.361c-2.035,-0.12 -1.797,-3.232 0.24,-3.113c0,0 6.239,0.481 9.952,0.481c3.951,0 10.069,-0.481 10.069,-0.481c2.038,-0.119 2.278,2.873 0.243,3.113c0,0 -2.051,0.241 -4.325,0.361l13.654,40.616l3.769,-12.593c1.634,-5.228 2.877,-8.981 2.877,-12.215" style="fill:#454342;fill-rule:nonzero;"/><path d="M112.963,59.305l-11.336,32.942c3.384,0.995 6.964,1.539 10.673,1.539c4.399,0 8.619,-0.761 12.547,-2.142c-0.102,-0.162 -0.193,-0.333 -0.269,-0.521l-11.615,-31.818Z" style="fill:#454342;fill-rule:nonzero;"/><path d="M145.454,37.872c0.162,1.203 0.254,2.495 0.254,3.885c0,3.833 -0.716,8.144 -2.872,13.534l-11.542,33.368c11.233,-6.551 18.789,-18.722 18.789,-32.66c0,-6.569 -1.678,-12.746 -4.629,-18.127" style="fill:#454342;fill-rule:nonzero;"/><path d="M112.3,98.025c-23.172,0 -42.025,-18.853 -42.025,-42.026c0,-23.172 18.853,-42.024 42.025,-42.024c23.172,0 42.023,18.852 42.023,42.024c0,23.173 -18.851,42.026 -42.023,42.026m0,-86.069c-24.286,0 -44.045,19.758 -44.045,44.043c0,24.289 19.759,44.045 44.045,44.045c24.284,0 44.046,-19.756 44.046,-44.045c0,-24.285 -19.762,-44.043 -44.046,-44.043" style="fill:#454342;fill-rule:nonzero;"/></g></g></g></svg>