<?xml version="1.0" encoding="UTF-8" standalone="no"?><!DOCTYPE svg PUBLIC "-//W3C//DTD SVG 1.1//EN" "http://www.w3.org/Graphics/SVG/1.1/DTD/svg11.dtd"><svg width="100%" height="100%" viewBox="0 0 226 150" version="1.1" xmlns="http://www.w3.org/2000/svg" xmlns:xlink="http://www.w3.org/1999/xlink" xml:space="preserve" xmlns:serif="http://www.serif.com/" style="fill-rule:evenodd;clip-rule:evenodd;stroke-linejoin:round;stroke-miterlimit:1.41421;"><g id="Layer-1" serif:id="Layer 1"><g><g id="Layer-11" serif:id="Layer 1"><path d="M43.128,74.776c0,10.478 10.232,20.259 26.362,25.773c-3.221,16.216 -0.577,29.286 8.254,34.379c9.077,5.235 22.599,1.611 35.435,-9.608c12.511,10.766 25.155,15.003 33.978,9.896c9.068,-5.25 11.826,-19.207 8.516,-35.929c16.801,-5.554 26.199,-13.895 26.199,-24.511c0,-10.235 -10.25,-19.089 -26.163,-24.568c3.563,-17.413 0.544,-30.166 -8.653,-35.47c-8.866,-5.112 -21.658,-0.656 -34.352,10.392c-13.208,-11.726 -25.873,-15.306 -35.06,-9.988c-8.858,5.127 -11.385,18.436 -8.154,34.951c-15.586,5.434 -26.362,14.489 -26.362,24.683" style="fill:#fff;fill-rule:nonzero;"/><path d="M152.338,55.648c-1.311,-0.45 -2.634,-0.866 -3.966,-1.25c0.221,-0.897 0.425,-1.799 0.613,-2.705c3.002,-14.575 1.039,-26.317 -5.665,-30.182c-6.428,-3.707 -16.94,0.159 -27.557,9.398c-1.046,0.912 -2.069,1.851 -3.068,2.815c-0.669,-0.641 -1.35,-1.27 -2.042,-1.885c-11.127,-9.881 -22.28,-14.044 -28.977,-10.167c-6.422,3.717 -8.324,14.756 -5.621,28.569c0.269,1.368 0.573,2.729 0.911,4.081c-1.578,0.449 -3.103,0.926 -4.56,1.434c-13.045,4.548 -21.377,11.676 -21.377,19.07c0,7.637 8.943,15.296 22.532,19.94c1.101,0.375 2.212,0.722 3.331,1.041c-0.363,1.457 -0.686,2.924 -0.968,4.4c-2.577,13.572 -0.564,24.35 5.84,28.044c6.616,3.814 17.718,-0.107 28.53,-9.557c0.854,-0.747 1.712,-1.539 2.571,-2.37c1.082,1.044 2.192,2.057 3.331,3.039c10.472,9.011 20.814,12.651 27.213,8.946c6.61,-3.826 8.757,-15.403 5.969,-29.489c-0.213,-1.076 -0.462,-2.175 -0.739,-3.294c0.779,-0.23 1.544,-0.468 2.291,-0.715c14.126,-4.68 23.316,-12.247 23.316,-19.985c0,-7.42 -8.6,-14.596 -21.908,-19.178" style="fill:#53c1de;fill-rule:nonzero;"/><path d="M140.691,26.071c4.126,2.38 5.731,11.976 3.138,24.56c-0.17,0.82 -0.354,1.636 -0.554,2.45c-5.111,-1.18 -10.663,-2.058 -16.475,-2.603c-3.385,-4.821 -6.893,-9.205 -10.415,-12.999c0.923,-0.89 1.867,-1.757 2.833,-2.599c9.097,-7.917 17.599,-11.043 21.473,-8.809m-10.859,58.78c-1.866,3.243 -3.838,6.424 -5.911,9.538c-3.656,0.261 -7.433,0.396 -11.283,0.396c-3.834,0 -7.564,-0.12 -11.156,-0.352c-2.127,-3.107 -4.136,-6.294 -6.022,-9.552c-1.878,-3.242 -3.631,-6.554 -5.257,-9.928c1.622,-3.376 3.37,-6.69 5.241,-9.934l0,0.001c1.87,-3.245 3.863,-6.417 5.974,-9.511c3.665,-0.277 7.422,-0.422 11.22,-0.422c3.815,0 7.577,0.146 11.241,0.425c2.089,3.089 4.07,6.251 5.936,9.479c1.878,3.237 3.649,6.535 5.312,9.887c-1.646,3.386 -3.411,6.713 -5.294,9.973l-0.001,0Zm8.134,-3.899c1.647,3.755 3.035,7.386 4.137,10.839c-3.572,0.816 -7.429,1.472 -11.494,1.96c1.303,-2.065 2.564,-4.155 3.783,-6.27c1.24,-2.149 2.431,-4.326 3.574,-6.529m-25.124,27.829c-2.495,-2.692 -4.983,-5.669 -7.414,-8.872c2.359,0.092 4.765,0.14 7.21,0.14c2.511,0 4.994,-0.057 7.438,-0.166c-2.4,3.261 -4.823,6.243 -7.234,8.898m-18.07,-14.936c-4.035,-0.45 -7.84,-1.061 -11.355,-1.825c1.088,-3.514 2.428,-7.165 3.994,-10.878c1.114,2.152 2.279,4.278 3.493,6.376c1.239,2.139 2.529,4.249 3.868,6.327m-3.889,-31.455c-1.209,2.097 -2.368,4.221 -3.478,6.372c-1.533,-3.635 -2.845,-7.21 -3.916,-10.662c3.516,-0.787 7.265,-1.43 11.171,-1.918c-1.307,2.04 -2.567,4.109 -3.777,6.208m21.813,-21.147c2.428,2.63 4.86,5.567 7.251,8.753c-4.851,-0.229 -9.711,-0.23 -14.563,-0.003c2.394,-3.157 4.846,-6.089 7.312,-8.75m21.675,21.111c-1.204,-2.081 -2.454,-4.135 -3.747,-6.162c3.932,0.496 7.698,1.156 11.235,1.964c-1.062,3.403 -2.385,6.962 -3.943,10.61c-1.139,-2.161 -2.321,-4.298 -3.545,-6.412m-53.15,-13.124c-2.316,-11.835 -0.778,-20.762 3.092,-23.002c4.123,-2.386 13.238,1.016 22.845,9.547c0.614,0.545 1.23,1.116 1.848,1.706c-3.579,3.844 -7.117,8.22 -10.496,12.99c-5.795,0.537 -11.342,1.4 -16.442,2.555c-0.314,-1.258 -0.597,-2.524 -0.847,-3.797l0,0.001Zm-5.958,40.555c-6.008,-2.054 -10.97,-4.723 -14.371,-7.634c-3.056,-2.618 -4.599,-5.216 -4.599,-7.325c0,-4.486 6.689,-10.209 17.845,-14.099c1.401,-0.486 2.815,-0.931 4.241,-1.335c1.543,5.016 3.565,10.259 6.006,15.562c-2.472,5.382 -4.524,10.709 -6.081,15.783c-1.021,-0.292 -2.035,-0.61 -3.041,-0.952m17.773,33.58c-3.793,1.34 -6.815,1.378 -8.641,0.325c-3.887,-2.241 -5.503,-10.895 -3.299,-22.502c0.262,-1.372 0.562,-2.736 0.9,-4.091c5.047,1.116 10.634,1.92 16.605,2.403c3.408,4.798 6.979,9.207 10.577,13.069c-0.765,0.739 -1.548,1.46 -2.348,2.161c-4.781,4.179 -9.571,7.144 -13.793,8.635l-0.001,0Zm51.178,-23.523c1.233,6.228 1.409,11.86 0.592,16.262c-0.734,3.956 -2.21,6.594 -4.034,7.649c-3.883,2.248 -12.188,-0.673 -21.143,-8.38c-1.027,-0.883 -2.061,-1.827 -3.098,-2.825c3.471,-3.797 6.941,-8.212 10.328,-13.115c5.957,-0.528 11.584,-1.392 16.688,-2.571c0.251,1.014 0.474,2.008 0.667,2.98m5.061,-10.028c-0.674,0.224 -1.366,0.439 -2.07,0.648c-1.56,-4.937 -3.665,-10.187 -6.24,-15.61c2.458,-5.295 4.481,-10.477 5.997,-15.382c1.261,0.365 2.484,0.75 3.663,1.156c11.403,3.924 18.357,9.728 18.357,14.2c0,4.763 -7.511,10.947 -19.707,14.988l0,0Z" style="fill:#fff;fill-rule:nonzero;"/><ellipse cx="112.637" cy="74.826" rx="11.003" ry="11.003" style="fill:#53c1de;"/></g></g></g></svg>